<?xml version="1.0" encoding="iso-8859-1"?>
<!-- Generator: Adobe Illustrator 19.0.0, SVG Export Plug-In . SVG Version: 6.00 Build 0)  -->
<svg version="1.1" id="Layer_1" xmlns="http://www.w3.org/2000/svg" xmlns:xlink="http://www.w3.org/1999/xlink" x="0px" y="0px"
	 viewBox="0 0 512.002 512.002" style="enable-background:new 0 0 512.002 512.002;" xml:space="preserve">
<g>
	<g>
		<g>
			<path d="M431.161,494.036h-53.898l12.836-36.369l-26.768-15.881c-4.186-2.506-9.342-2.102-12.962,0.925l-13.662,11.381
				c-9.629,8.03-20.534,12.513-31.537,12.971c-12.369,0.575-23.04-3.494-29.301-11.021l-34.609-36.684
				c-7.024-7.015-11.21-8.255-25.106-2.533c-2.578,1.06-5.38,3-8.363,5.057c-6.306,4.348-13.447,9.279-22.869,9.279
				c-17.525,0-28.708-7.734-32.696-11.066l-32.921-28.591l-1.797-1.581l36.748,104.115H98.81c-4.967,0-8.982,4.024-8.982,8.982
				c0,4.958,4.015,8.983,8.982,8.983h61.787l0,0.001h210.324l0-0.001h60.239c4.967,0,8.982-4.024,8.982-8.983
				C440.144,498.06,436.128,494.036,431.161,494.036z"/>
			<path d="M385.968,62.878c-19.815,0-35.93,16.115-35.93,35.93s16.115,35.93,35.93,35.93s35.93-16.115,35.93-35.93
				S405.783,62.878,385.968,62.878z M385.968,116.773c-9.908,0-17.965-8.057-17.965-17.965s8.057-17.965,17.965-17.965
				s17.965,8.057,17.965,17.965S395.875,116.773,385.968,116.773z"/>
			<path d="M485.053,99.085c0-15.369-10.384-28.358-24.513-32.319c4.051-10.887,2.767-23.363-8.057-34.187
				c-10.815-10.833-23.292-12.117-34.196-8.057C414.325,10.393,401.337,0,385.968,0c-15.324,0-28.277,10.321-32.283,24.369
				c-11.668-4.321-23.83-1.635-33.675,8.21c-9.728,9.719-12.504,22.348-8.452,34.133c-14.058,3.853-24.118,16.698-24.118,32.373
				c0,15.692,10.078,28.555,24.163,32.391c-3.925,11.596-1.15,24.001,8.408,33.567c7.411,7.411,16.375,10.86,26.004,9.971
				c2.542-0.243,5.066-0.781,7.545-1.626c2.569,9.519,9.271,17.214,18.183,21.218c-6.995,12.287-12.856,26.578-16.67,48.868
				c-5.864-5.113-11.02-10.471-13.792-13.461c-1.225-38.848-22.882-59.344-62.818-59.344c-4.967,0-8.982,4.024-8.982,8.982
				c0,44.24,30.778,61.264,58.79,62.756c4.497,4.844,14.031,14.617,24.097,21.863c-1.117,11.75-1.806,25.302-1.994,41.134H197.769
				c-0.046-2.784-0.114-5.502-0.202-8.157c0.07-0.77,0.046-1.546-0.082-2.308c-0.838-21.847-3.094-39.343-6.263-53.771
				c1.958-10.836,8.621-21.828,11.825-26.649c9.344-2.457,23.685-7.753,34.621-18.609c9.593-9.521,19.734-26.642,13.635-54.137
				c-1.069-4.851-5.884-7.887-10.725-6.818c-22.348,4.958-37.996,14.857-46.52,29.4c-6.564,11.186-8.596,25.03-5.981,40.224
				c-1.415,2.125-3.312,5.144-5.293,8.784c-4.914-12.224-10.535-21.646-16.078-30.267c3.971-6.519,4.988-13.909,3.072-21.036
				c11.084-3.827,18.854-14.372,18.854-27.091c0-12.71-7.752-23.238-18.818-27.082c2.632-9.539,0.063-19.573-7.77-27.405
				c-7.788-7.797-17.552-10.267-27.028-7.5c-3.934-11.111-14.552-19.088-26.992-19.088c-12.468,0-23.112,8.012-27.028,19.16
				c-9.602-2.803-19.663-0.359-27.459,7.428c-8.318,8.309-9.171,17.067-8.426,22.95c0.189,1.509,0.512,3.018,0.961,4.518
				c-11.129,3.925-19.124,14.552-19.124,27.019c0,12.441,7.985,23.067,19.106,27.01c-0.422,1.428-0.728,2.865-0.907,4.33
				c-0.728,5.785,0.126,14.426,8.39,22.69c8.354,8.345,18.396,10.06,27.352,7.599c3.791,11.156,14.363,18.98,27.136,18.98
				c12.728,0,23.256-7.77,27.091-18.863c6.056,1.639,12.296,1.144,18.027-1.466c7.669,12.168,15.034,25.91,20.086,47.612
				c0.058,0.355,0.143,0.701,0.242,1.042c2.162,9.537,3.879,20.602,4.991,33.706c-3.351-2.13-6.327-3.826-8.582-5.045
				c-3.464-21.775-12.017-55.516-63.403-47.9c-4.904,0.719-8.3,5.282-7.572,10.195c7.509,50.816,39.922,52.524,60.666,52.581
				c3.525,1.822,11.991,6.486,20.133,13.16c0.042,1.575,0.074,3.181,0.102,4.806h-75.853c-12.737,0-23.103,10.366-23.103,23.112
				v7.671c0,12.746,10.366,23.112,23.103,23.112h6.068l53.844,47.114c2.353,1.958,9.405,6.782,21.055,6.782
				c3.826,0,8.129-2.964,12.674-6.099c3.62-2.506,7.366-5.084,11.713-6.872c16.698-6.898,30.028-8.201,44.84,6.62l35.157,37.286
				c2.991,3.557,8.497,5.255,15.117,4.985c8.875-0.377,16.204-5.003,20.785-8.821l13.653-11.381
				c9.494-7.914,22.986-8.964,33.594-2.605l17.39,10.069l6.422,3.826l28.556-80.906h10.177c12.737,0,23.112-10.366,23.112-23.112
				v-7.671c0-12.746-10.375-23.112-23.112-23.112h-66.663c0.083-7.196,0.267-13.88,0.547-20.089
				c7.384-7.757,15.371-13.129,19.235-15.514c2.56,0.286,5.548,0.495,8.855,0.495c8.713,0,19.537-1.455,30.019-6.755
				c11.776-5.937,26.705-18.845,31.007-46.583c0.763-4.904-2.596-9.494-7.5-10.258c-39.428-6.112-64.979,10.957-72.365,48.152
				c-1.699,1.06-3.86,2.479-6.311,4.245c-0.119-0.755-0.342-1.489-0.647-2.191c3.759-30.097,10.923-45.344,19.941-59.67
				c13.355-1.944,23.907-11.352,27.267-23.93c11.048,3.737,23.714,2.138,34.097-8.264c9.665-9.674,12.324-21.98,8.084-33.639
				C474.678,127.434,485.053,114.445,485.053,99.085z M288.082,189.137c21.288,2.407,32.355,13.447,34.771,34.699
				C309.434,221.753,291.639,214.18,288.082,189.137z M209.544,173.436c4.779-8.12,13.357-14.282,25.582-18.378
				c0.701,11.435-2.641,20.687-10.114,28.106c-5.937,5.893-13.51,9.638-20.013,11.974
				C204.46,186.793,205.987,179.517,209.544,173.436z M118.512,241.514c22.519-0.97,28.861,9.881,32.499,27.747
				C136.747,268.398,124.288,263.997,118.512,241.514z M133.229,175.273c-2.758-2.749-7.006-3.413-10.474-1.626
				c-3.539,1.832-5.318,6.575-4.563,10.492c0.153,0.79,0.485,2.246,0.503,3.252c0,5.731-4.689,10.222-10.671,10.222
				s-10.68-4.491-10.68-10.204c0.018-0.997,0.341-2.425,0.494-3.225c0.728-3.836-0.97-8.578-4.392-10.447
				c-1.356-0.728-2.82-1.087-4.285-1.087c-2.335,0-4.635,0.907-6.36,2.632c-1.464,1.473-9.171,8.408-16.564,1.015
				c-3.386-3.386-3.485-6.036-3.27-7.743c0.341-2.686,2.021-5.659,4.734-8.372c2.82-2.812,3.449-7.15,1.545-10.653
				c-1.868-3.431-6.584-5.102-10.429-4.383c-0.799,0.153-2.237,0.476-3.225,0.494c-5.893,0-10.68-4.788-10.68-10.671
				c0-5.893,4.788-10.68,10.671-10.68c0.997,0.018,2.434,0.341,3.234,0.494c3.854,0.755,8.569-0.952,10.429-4.383
				c1.904-3.503,1.276-7.842-1.545-10.653c-2.686-2.686-4.419-5.803-4.77-8.569c-0.225-1.787-0.135-4.554,3.306-7.994
				c6.557-6.584,13.186-1.913,16.564,1.464c2.812,2.812,7.132,3.449,10.644,1.545c3.422-1.868,5.12-6.611,4.392-10.447
				c-0.153-0.799-0.476-2.228-0.494-3.207c0-5.893,4.788-10.68,10.68-10.68c5.883,0,10.671,4.788,10.671,10.662
				c-0.018,1.024-0.35,2.479-0.503,3.27c-0.755,3.916,1.024,8.659,4.563,10.492c3.458,1.796,7.707,1.132,10.474-1.635
				c8.821-8.803,14.3-3.279,16.115-1.464c6.764,6.764,2.273,13.285-1.006,16.564c-2.82,2.82-3.449,7.15-1.545,10.653
				c1.868,3.431,6.629,5.129,10.429,4.383c0.799-0.153,2.219-0.476,3.234-0.494c5.722,0,10.213,4.689,10.213,10.68
				c0,5.982-4.491,10.671-10.213,10.671c-1.006-0.018-2.434-0.341-3.234-0.494c-3.791-0.71-8.551,0.952-10.429,4.383
				c-1.904,3.503-1.276,7.833,1.545,10.653c3.189,3.198,7.581,9.539,1.006,16.115C142.535,183.106,135.807,177.851,133.229,175.273z
				 M440.146,328.516v7.671c0,2.838-2.308,5.147-5.147,5.147H103.951c-2.829,0-5.138-2.308-5.138-5.147v-7.671
				c0-2.838,2.309-5.147,5.138-5.147h331.048C437.838,323.369,440.146,325.678,440.146,328.516z M435.634,223.453
				c0.817,0,1.653,0.018,2.488,0.045c-3.503,11.273-9.953,19.33-19.222,24.01c-7.429,3.755-15.387,4.77-21.693,4.806
				C402.83,232.974,415.496,223.453,435.634,223.453z M451.495,114.679c-1.329,0-3.341-0.449-4.437-0.656
				c-6.548-1.267-9.494,2.201-10.662,4.365c-1.886,3.494-1.249,7.824,1.554,10.635c5.74,5.74,10.716,14.435,1.832,23.318
				c-8.345,8.345-18.064,4.536-23.884-1.267c-2.767-2.767-7.006-3.422-10.492-1.626c-2.228,1.159-5.776,4.078-4.518,10.689
				c0.216,1.096,0.665,3.135,0.665,4.482c0,8.426-6.845,15.028-15.585,15.028c-8.749,0-15.594-6.602-15.594-15.028
				c0-1.347,0.458-3.386,0.665-4.473c1.276-6.611-2.273-9.539-4.5-10.698c-1.32-0.674-2.731-1.006-4.141-1.006
				c-2.335,0-4.635,0.907-6.36,2.632c-2.883,2.892-13.105,11.489-23.327,1.267c-10.222-10.231-1.608-20.435,1.276-23.318
				c2.802-2.812,3.44-7.141,1.554-10.626c-1.177-2.174-4.114-5.623-10.662-4.383c-1.096,0.216-3.108,0.665-4.446,0.665
				c-8.426,0-15.028-6.845-15.028-15.594c0-8.74,6.602-15.585,15.028-15.585c1.347,0,3.377,0.449,4.473,0.665
				c6.485,1.231,9.494-2.246,10.671-4.446c1.85-3.485,1.195-7.77-1.59-10.563c-3.62-3.62-5.839-7.833-6.252-11.848
				c-0.44-4.303,1.186-8.237,4.976-12.028c8.875-8.866,17.588-3.925,23.327,1.823c2.794,2.794,7.069,3.431,10.572,1.59
				c2.192-1.168,5.704-4.114,4.428-10.662c-0.216-1.096-0.665-3.126-0.665-4.473c0-8.596,6.997-15.594,15.594-15.594
				s15.585,6.997,15.585,15.594c0,1.347-0.449,3.377-0.665,4.473c-1.249,6.566,2.246,9.503,4.446,10.662
				c3.494,1.85,7.779,1.204,10.563-1.59c3.871-3.862,13.941-11.785,23.884-1.823c9.953,9.953,2.039,20.013-1.832,23.875
				c-2.785,2.794-3.44,7.078-1.59,10.572c1.177,2.192,4.096,5.695,10.671,4.437c1.087-0.216,3.126-0.665,4.464-0.665
				c8.596,0,15.594,6.988,15.594,15.585C467.088,107.682,460.091,114.679,451.495,114.679z"/>
			<path d="M107.793,103.299c-17.336,0-31.439,14.102-31.439,31.439c0,17.336,14.102,31.439,31.439,31.439
				s31.439-14.102,31.439-31.439C139.231,117.402,125.129,103.299,107.793,103.299z M107.793,148.211
				c-7.429,0-13.474-6.045-13.474-13.474c0-7.428,6.045-13.474,13.474-13.474c7.428,0,13.474,6.045,13.474,13.474
				C121.266,142.166,115.221,148.211,107.793,148.211z"/>
		</g>
	</g>
</g>
<g>
</g>
<g>
</g>
<g>
</g>
<g>
</g>
<g>
</g>
<g>
</g>
<g>
</g>
<g>
</g>
<g>
</g>
<g>
</g>
<g>
</g>
<g>
</g>
<g>
</g>
<g>
</g>
<g>
</g>
</svg>
