<?xml version="1.0" standalone="no"?><svg xmlns="http://www.w3.org/2000/svg" viewBox="0 0 1440 320"><path fill="#fff" fill-opacity="1" d="M0,288L0,256L84.7,256L84.7,256L169.4,256L169.4,96L254.1,96L254.1,96L338.8,96L338.8,256L423.5,256L423.5,32L508.2,32L508.2,64L592.9,64L592.9,128L677.6,128L677.6,256L762.4,256L762.4,192L847.1,192L847.1,96L931.8,96L931.8,256L1016.5,256L1016.5,64L1101.2,64L1101.2,160L1185.9,160L1185.9,192L1270.6,192L1270.6,288L1355.3,288L1355.3,96L1440,96L1440,0L1355.3,0L1355.3,0L1270.6,0L1270.6,0L1185.9,0L1185.9,0L1101.2,0L1101.2,0L1016.5,0L1016.5,0L931.8,0L931.8,0L847.1,0L847.1,0L762.4,0L762.4,0L677.6,0L677.6,0L592.9,0L592.9,0L508.2,0L508.2,0L423.5,0L423.5,0L338.8,0L338.8,0L254.1,0L254.1,0L169.4,0L169.4,0L84.7,0L84.7,0L0,0L0,0Z"></path></svg>